<?xml version="1.0" encoding="utf-8"?>
<svg xmlns="http://www.w3.org/2000/svg" width="202" height="80" viewBox="0 0 43 17" preserveAspectRatio="none">
  <g fill="none" transform="translate(0 .82)">
    <path fill="#000" d="M1.51004126,9.71962534 C1.51004126,11.1241806 1.65608065,11.6578687 2.10064173,11.6578687 C2.8437245,11.6578687 3.53526396,10.2533134 3.9551272,8.97546875 L4.04962327,9.07318628 L3.6222433,12.2334357 C2.8437245,12.2334357 2.06627952,12.1775971 0.995681946,12.1775971 C0.684274426,12.1775971 0.351390526,12.2334357 0.000251702575,12.2334357 L0.000251702575,11.9520951 C0.456624791,11.8962565 0.48024881,10.771968 0.48024881,9.50915681 L0.48024881,4.93039246 C0.48024881,4.00368663 0.410450573,3.49791787 0.134479082,3.35724757 L0.134479082,3.1328194 C0.451255696,3.1328194 0.730448645,3.18973181 0.999977222,3.18973181 C1.2695058,3.18973181 1.55084639,3.1328194 1.86654918,3.1328194 L1.86654918,3.35724757 C1.59165151,3.49791787 1.51004126,4.00368663 1.51004126,4.93039246 C1.51004126,7.3250089 1.51004126,7.3250089 1.51004126,9.71962534 Z M5.96896741,8.1047089 L7.02131006,8.1047089 L6.48869582,5.56297925 L5.96896741,8.1047089 Z M5.87447134,8.58148455 L5.6521908,9.67785378 C5.57702347,10.1127505 5.5115205,10.5476472 5.5115205,10.8289878 C5.5115205,11.5312654 5.69299592,11.8265657 5.95608158,11.9522025 L5.95608158,12.2335431 C5.71769376,12.2335431 5.44816518,12.1777045 5.23125374,12.1777045 C5.01434229,12.1777045 4.76951155,12.2335431 4.52897609,12.2335431 L4.52897609,11.9801218 C4.6986395,11.8963639 5.06695942,11.1382477 5.37085021,9.76161167 L6.77003641,3.3992339 C6.80547244,3.23171813 6.87634449,2.9084986 6.9107067,2.9084986 L6.92251871,2.9084986 C6.96332384,2.9084986 7.05781991,3.27359707 7.09218212,3.44218666 L8.61378369,10.2952997 C8.88868136,11.5173058 9.05297567,11.8265657 9.23445109,11.9103235 L9.23445109,12.2335431 C8.91230538,12.2335431 8.53861636,12.1777045 8.23902085,12.1777045 C7.94694207,12.1777045 7.61298435,12.2335431 7.28546955,12.2335431 L7.28546955,11.9522025 C7.47231406,11.854485 7.60224616,11.7975726 7.60224616,11.2638845 C7.60224616,10.9417388 7.51311918,10.4080507 7.40251582,9.90228196 L7.11473232,8.58148455 L5.87447134,8.58148455 Z M13.5055663,9.71962534 C13.5055663,11.1241806 13.6516057,11.6578687 14.0961668,11.6578687 C14.8392495,11.6578687 15.530789,10.2533134 15.9506522,8.97546875 L16.0451483,9.07318628 L15.6177683,12.2334357 C14.8392495,12.2334357 14.0618045,12.1775971 12.991207,12.1775971 C12.6797995,12.1775971 12.3469156,12.2334357 11.9957767,12.2334357 L11.9957767,11.9520951 C12.4521498,11.8962565 12.4757738,10.771968 12.4757738,9.50915681 L12.4757738,4.93039246 C12.4757738,4.00368663 12.4059756,3.49791787 12.1300041,3.35724757 L12.1300041,3.1328194 C12.4467807,3.1328194 12.7270475,3.18973181 12.9955023,3.18973181 C13.2650308,3.18973181 13.5463714,3.1328194 13.8620742,3.1328194 L13.8620742,3.35724757 C13.5871765,3.49791787 13.5055663,4.00368663 13.5055663,4.93039246 C13.5055663,7.3250089 13.5055663,7.3250089 13.5055663,9.71962534 Z M17.116068,4.57903887 C17.116068,3.62441375 17.0043908,3.4977031 16.8175463,3.35703281 L16.8175463,3.13260463 C17.0870749,3.13260463 17.3662679,3.18844322 17.6315012,3.18844322 C17.8945868,3.18844322 18.1748536,3.13260463 18.4433083,3.13260463 L18.4433083,3.35703281 C18.2156587,3.4977031 18.1458605,3.8359561 18.1458605,4.60695816 L18.1458605,9.45310346 C18.1458605,10.7169885 18.1684107,11.8402032 18.5496164,11.8960418 L18.5496164,12.1773823 L16.665064,12.1773823 L16.665064,11.8960418 C17.092444,11.8402032 17.116068,10.7169885 17.116068,9.45310346 C17.116068,7.01607116 17.116068,7.01607116 17.116068,4.57903887 Z M20.6437783,9.50883467 C20.6502212,11.5029166 20.7436435,11.7273448 21.3524989,11.7273448 C21.9312873,11.7273448 22.2942382,11.0111075 22.2942382,9.59259255 C22.2942382,7.76710019 21.5049812,7.57059131 20.895052,7.57059131 L20.6437783,7.57059131 L20.6437783,9.50883467 Z M20.6437783,7.12066114 L20.8381396,7.12066114 C21.405116,7.12066114 21.9839045,6.89623296 21.9839045,5.35208119 C21.9967903,3.97544519 21.6209536,3.66725913 20.8381396,3.63826602 L20.6437783,3.63826602 L20.6437783,7.12066114 Z M19.6139859,4.93007031 C19.6139859,4.00336449 19.5613687,3.49759572 19.3326453,3.35692543 L19.3326453,3.13357107 C19.6021738,3.13357107 19.8835144,3.18940966 20.1466001,3.18940966 L21.405116,3.18940966 C21.9549113,3.18940966 23.0609449,3.30216066 23.0609449,5.14161266 C23.0609449,6.82643472 22.3651102,7.1356946 21.808872,7.29032454 L21.808872,7.31824384 C22.4349085,7.37408243 23.3712787,7.8519319 23.3712787,9.76118214 C23.3712787,12.0366047 22.0537027,12.177275 21.405116,12.177275 L20.2754584,12.177275 C19.9361316,12.177275 19.5495567,12.2331136 19.1812368,12.2331136 L19.1812368,11.951773 C19.5914357,11.8970082 19.6139859,10.7727197 19.6139859,9.50883467 L19.6139859,4.93007031 Z M24.4714062,4.93039246 C24.4714062,4.00368663 24.401608,3.49791787 24.1256365,3.35724757 L24.1256365,3.1328194 C24.4424131,3.1328194 24.7226799,3.18865799 24.9857656,3.18865799 C26.3559587,3.18865799 26.9572973,3.1328194 27.5199785,3.1328194 L27.7948762,5.60475081 L27.6660179,5.60475081 C27.2332688,4.35482546 26.6480374,3.63858816 26.057437,3.63858816 L25.5011987,3.63858816 L25.5011987,7.19078152 L25.8458946,7.19078152 C26.3430728,7.19078152 26.8756871,6.93843405 27.0517934,5.66166322 L27.1634706,5.66166322 L27.1634706,9.15801799 L27.0689745,9.15801799 C26.9572973,8.13252081 26.4493809,7.66970481 25.8458946,7.66970481 L25.5011987,7.66970481 L25.5011987,9.71962534 C25.5011987,11.1241806 25.6354261,11.6578687 26.2152884,11.6578687 C26.9572973,11.6578687 27.6488368,10.2533134 28.0708476,8.97546875 L28.1631961,9.07318628 L27.7358161,12.2334357 C26.9283042,12.2334357 26.1207923,12.1775971 24.9857656,12.1775971 C24.6754319,12.1775971 24.342548,12.2334357 23.9914091,12.2334357 L23.9914091,11.9520951 C24.4477822,11.8962565 24.4714062,10.771968 24.4714062,9.50915681 C24.4714062,7.21977463 24.4714062,7.21977463 24.4714062,4.93039246 Z M30.2348078,7.16404343 L30.5451415,7.16404343 C31.0369506,7.16404343 31.5867459,6.78391149 31.5867459,5.40834931 C31.5867459,3.94795542 31.0369506,3.63869554 30.5451415,3.63869554 L30.2348078,3.63869554 L30.2348078,7.16404343 Z M29.2050153,4.93049984 C29.2050153,4.00379401 29.1352171,3.49802525 28.8603194,3.35735496 L28.8603194,3.13292678 C29.3209878,3.13292678 29.8020587,3.18983919 30.2294387,3.18983919 L31.2935933,3.18983919 C32.2417755,3.18983919 32.7110344,4.03171331 32.7110344,5.29559831 C32.7110344,7.05129243 31.8380196,7.44431019 31.2646002,7.44431019 L31.2646002,7.47222949 C31.9496968,7.72457696 32.2299635,8.08967543 32.494123,9.66282031 C32.8044567,11.5312654 32.921503,11.8115322 33.2490178,12.0091149 L33.2490178,12.2335431 C33.0084823,12.2335431 32.7271417,12.1777045 32.5113041,12.1777045 C32.2890236,12.1777045 32.0377499,12.2335431 31.7972145,12.2335431 L31.4868808,10.0010733 C31.3236603,8.98953578 31.0831248,7.61289978 30.5451415,7.61289978 L30.2348078,7.61289978 L30.2348078,9.50926419 C30.2348078,10.7720754 30.257358,11.8963639 30.6858118,11.9522025 L30.6858118,12.2335431 C30.363666,12.2335431 30.0307821,12.1777045 29.7204484,12.1777045 C29.4090409,12.1777045 29.076157,12.2335431 28.7540113,12.2335431 L28.7540113,11.9522025 C29.1813913,11.8963639 29.2050153,10.7720754 29.2050153,9.50926419 L29.2050153,4.93049984 Z M33.5359422,5.68861608 L33.839833,3.18983919 L37.5155156,3.18983919 L37.8194063,5.68861608 L37.6905481,5.68861608 C37.4564555,4.97237878 36.9184722,3.69560795 36.5093471,3.69560795 C36.2634426,3.69560795 36.1936443,4.08862572 36.1936443,4.60728031 L36.1936443,9.50926419 C36.1936443,10.7720754 36.2161945,11.8963639 36.6725676,11.9522025 L36.6725676,12.2335431 C36.3214288,12.2335431 35.9874711,12.1777045 35.6782112,12.1777045 C35.3678775,12.1777045 35.0349936,12.2335431 34.6355329,12.2335431 L34.6355329,11.9522025 C35.139154,11.8963639 35.1627781,10.7720754 35.1627781,9.50926419 L35.1627781,4.60728031 C35.1627781,4.08862572 35.0929798,3.69560795 34.8470753,3.69560795 C34.4368764,3.69560795 33.8988931,4.97237878 33.6648005,5.68861608 C33.430708,6.40485337 33.4449723,6.43662654 33.5359422,5.68861608 Z M38.8610108,4.93039246 C38.8610108,4.00368663 38.7912126,3.49791787 38.5163149,3.35724757 L38.5163149,3.1328194 C38.8320177,3.1328194 39.1122845,3.18865799 39.3753701,3.18865799 C40.7455632,3.18865799 41.3479757,3.1328194 41.909583,3.1328194 L42.1855545,5.60475081 L42.0566963,5.60475081 C41.6228734,4.35482546 41.037642,3.63858816 40.4470415,3.63858816 L39.8908033,3.63858816 L39.8908033,7.19078152 L40.2354992,7.19078152 C40.7337512,7.19078152 41.2663654,6.93843405 41.4413979,5.66166322 L41.5530751,5.66166322 L41.5530751,9.15801799 L41.4596529,9.15801799 C41.3479757,8.13252081 40.8389855,7.66970481 40.2354992,7.66970481 L39.8908033,7.66970481 L39.8908033,9.71962534 C39.8908033,11.1241806 40.0261045,11.6578687 40.6048929,11.6578687 C41.3479757,11.6578687 42.0384413,10.2533134 42.4604522,8.97546875 L42.5528006,9.07318628 L42.1264945,12.2334357 C41.3189826,12.2334357 40.5114707,12.1775971 39.3753701,12.1775971 C39.0650364,12.1775971 38.7321525,12.2334357 38.3810137,12.2334357 L38.3810137,11.9520951 C38.8384606,11.8962565 38.8610108,10.771968 38.8610108,9.50915681 C38.8610108,7.21977463 38.8610108,7.21977463 38.8610108,4.93039246 Z" />
    <path fill="#CB2439" d="M39.5572751,2.69470123 L40.8029051,0.870282696 C41.0015617,0.590015928 41.1400843,0.393507045 41.3999485,0.424647797 C41.6200814,0.450419454 41.8284023,0.700619289 41.7833019,1.09148942 C41.7500135,1.3781991 41.4837064,1.67886843 41.1841109,1.90759188 L40.1027751,2.76020419 L39.5572751,2.69470123 Z" />
  </g>
</svg>