<?xml version="1.0" encoding="utf-8"?>
<svg xmlns="http://www.w3.org/2000/svg" width="198" height="80" viewBox="0 0 42 17" preserveAspectRatio="none">
  <g fill="none" transform="translate(0 1)">
    <polygon fill="#004981" points="0 15 42 15 42 0 0 0" />
    <polygon fill="#FFF" points=".939 .947 .939 7.388 6.491 7.388 6.491 5.548 3.094 5.548 3.094 .947" />
    <path fill="#FFF" d="M9.4644,0.8997 L6.7494,7.3877 L9.0504,7.3877 L9.3814,6.5237 L11.6364,6.5237 L11.9774,7.3877 L14.3154,7.3877 L11.5994,0.8997 L9.4644,0.8997 Z M10.5124,3.4317 L11.1034,4.9957 L9.9244,4.9957 L10.5124,3.4317 Z" />
    <polygon fill="#FFF" points=".939 7.639 .939 9.461 2.64 9.461 2.64 14.08 4.794 14.08 4.794 9.461 6.495 9.461 6.495 7.639" />
    <path fill="#FFF" d="M6.7349 7.6387L9.8819 7.6387C11.0239 7.6387 11.7519 7.9237 12.2019 8.3747 12.5889 8.7617 12.7909 9.2397 12.7909 9.9027L12.7909 9.9207C12.7909 10.8597 12.3029 11.5137 11.5209 11.8897L13.0209 14.0807 10.5639 14.0807 9.3489 12.2407 9.3309 12.2407 8.8889 12.2407 8.8889 14.0807 6.7349 14.0807 6.7349 7.6387zM9.8189 10.7027C10.3339 10.7027 10.6469 10.4727 10.6469 10.0777L10.6469 10.0587C10.6469 9.6447 10.3249 9.4427 9.8279 9.4427L8.8889 9.4427 8.8889 10.7027 9.8189 10.7027zM15.5435 7.6387L19.1505 7.6387C20.0435 7.6387 20.6055 7.8407 20.9815 8.2187 21.2125 8.4487 21.3785 8.7797 21.3785 9.2217L21.3785 9.2397C21.3785 10.0037 20.9175 10.4727 20.2275 10.7127 21.0565 10.9517 21.5895 11.3937 21.5895 12.2767L21.5895 12.2947C21.5895 13.3257 20.7425 14.0807 19.1135 14.0807L15.5435 14.0807 15.5435 7.6387zM18.5805 10.1687C19.0405 10.1687 19.2615 10.0127 19.2615 9.7277L19.2615 9.7097C19.2615 9.4237 19.0305 9.2677 18.5705 9.2677L17.6415 9.2677 17.6415 10.1687 18.5805 10.1687zM18.7185 12.4517C19.1885 12.4517 19.4275 12.2587 19.4275 11.9827L19.4275 11.9637C19.4275 11.6877 19.1965 11.4947 18.7275 11.4947L17.6415 11.4947 17.6415 12.4517 18.7185 12.4517zM21.6694 7.6389L23.8594 7.6389 23.8594 11.1639C23.8594 11.9639 24.2734 12.3049 24.8544 12.3049 25.4344 12.3049 25.8494 11.9919 25.8494 11.2099L25.8494 7.6389 28.0394 7.6389 28.0394 11.1449C28.0394 13.3439 26.7604 14.2099 24.8354 14.2099 22.9124 14.2099 21.6694 13.3259 21.6694 11.1909L21.6694 7.6389z" />
    <polygon fill="#FFF" points="28.298 7.639 30.314 7.639 32.605 10.483 32.605 7.639 34.74 7.639 34.74 14.081 32.826 14.081 30.433 11.108 30.433 14.081 28.298 14.081" />
    <polygon fill="#FFF" points="34.993 7.639 40.487 7.639 40.487 9.406 37.109 9.406 37.109 10.059 40.257 10.059 40.257 11.615 37.109 11.615 37.109 12.314 40.533 12.314 40.533 14.081 34.993 14.081" />
    <polygon fill="#FFF" points="13.084 14.081 15.286 14.081 15.286 7.639 13.084 7.639" />
    <path fill="#FFF" d="M37.1353,7.2934 L37.2393,7.2934 L37.2393,6.7504 L37.5303,6.7504 L37.5303,7.2934 L37.6333,7.2934 L37.6333,6.1614 L37.5303,6.1614 L37.5303,6.6564 L37.2393,6.6564 L37.2393,6.1614 L37.1353,6.1614 L37.1353,7.2934 Z M37.8893,7.2934 L38.3043,7.2934 L38.3043,7.1994 L37.9923,7.1994 L37.9923,6.7504 L38.2523,6.7504 L38.2523,6.6564 L37.9923,6.6564 L37.9923,6.2554 L38.3043,6.2554 L38.3043,6.1614 L37.8893,6.1614 L37.8893,7.2934 Z M38.5113,7.2934 L38.7423,7.2934 C38.8683,7.2934 39.0163,7.2224 39.0163,6.9754 C39.0163,6.8184 38.9223,6.7374 38.8463,6.7164 L38.8463,6.7104 C38.9173,6.6844 39.0073,6.6054 39.0073,6.4494 C39.0073,6.2474 38.9223,6.1614 38.7583,6.1614 L38.5113,6.1614 L38.5113,7.2934 Z M38.6143,7.2034 L38.6143,6.7584 L38.7203,6.7584 C38.8423,6.7584 38.9083,6.8444 38.9083,6.9524 L38.9083,6.9934 C38.9083,7.1404 38.8513,7.2034 38.7333,7.2034 L38.6143,7.2034 Z M38.6143,6.6684 L38.6143,6.2554 L38.7313,6.2554 C38.8543,6.2554 38.8993,6.3104 38.8993,6.4564 L38.8993,6.4844 C38.8993,6.6144 38.8043,6.6684 38.7403,6.6684 L38.6143,6.6684 Z M39.2263,7.2934 L39.4723,7.2934 C39.6223,7.2934 39.7243,7.2124 39.7243,7.0354 L39.7243,6.4054 C39.7243,6.2394 39.6183,6.1614 39.4633,6.1614 L39.2263,6.1614 L39.2263,7.2934 Z M39.3293,7.1994 L39.3293,6.2554 L39.4453,6.2554 C39.5763,6.2554 39.6203,6.3334 39.6203,6.4204 L39.6203,7.0354 C39.6203,7.1354 39.5813,7.1994 39.4453,7.1994 L39.3293,7.1994 Z M40.4363,7.0234 L40.4363,6.4214 C40.4363,6.2534 40.3643,6.1424 40.1853,6.1424 C40.0083,6.1424 39.9343,6.2554 39.9343,6.4214 L39.9343,7.0574 C39.9343,7.2174 40.0233,7.3134 40.1853,7.3134 C40.3603,7.3134 40.4363,7.1854 40.4363,7.0234 Z M40.0373,7.0404 L40.0373,6.4124 C40.0373,6.3154 40.0743,6.2394 40.1833,6.2394 C40.2903,6.2394 40.3323,6.3154 40.3323,6.4124 L40.3323,7.0404 C40.3323,7.1404 40.2963,7.2154 40.1833,7.2154 C40.0763,7.2154 40.0373,7.1334 40.0373,7.0404 Z" />
  </g>
</svg>