<?xml version="1.0" encoding="utf-8"?>
<svg width="249" height="80" viewBox="0 0 53 17" version="1.1" xmlns="http://www.w3.org/2000/svg" xmlns:xlink="http://www.w3.org/1999/xlink" preserveAspectRatio="none">
  <title>Masthead / Forbes Afrique - 9M27</title>
  <g id="Masthead-/-Forbes-Afrique---9M27" stroke="none" stroke-width="1" fill="none" fill-rule="evenodd">
    <g id="Group-13" transform="translate(0.000000, 1.736730)">
      <path d="M41.0654337,3.7208598 C43.5950143,3.7208598 44.8141085,5.65917185 44.8315923,8.19828912 L39.1422212,8.19828912 C39.1239427,10.4465404 40.26436,12.1520007 42.3957881,12.1520007 C43.3287845,12.1520007 43.8612442,11.8802078 44.4318502,11.4550348 L44.69808,11.764974 C44.0702544,12.65744 42.7772517,13.5101701 41.044771,13.5101701 C38.2664443,13.5101701 36.3448213,11.5130491 36.3448213,8.70293371 C36.3464107,6.16222701 37.9263059,3.7208598 41.0654337,3.7208598 Z M14.0665507,3.7208598 C17.0737557,3.7208598 18.5948419,5.83321463 18.5948419,8.58531576 C18.5948419,11.2992705 16.8830238,13.5085807 13.8193941,13.5085807 C10.8129839,13.5085807 9.29189766,11.4160938 9.29189766,8.6624032 C9.29189766,5.96911105 11.0037157,3.7208598 14.0665507,3.7208598 Z M29.8599396,0 C29.8408664,0.658819473 29.8035148,2.38335295 29.8035148,4.41941506 C30.5068383,4.05066689 31.1545318,3.83688832 32.029514,3.83688832 C34.1204115,3.83688832 35.6812335,5.69811293 35.6812335,8.27537656 C35.6812335,11.4534454 33.7588158,13.5085807 30.5068383,13.5085807 C29.3457584,13.5085807 28.1465321,13.31467 27.0998913,13.0627451 C27.1433429,12.4752353 27.1668303,10.4883817 27.1703534,8.36740979 L27.1703534,7.23896544 C27.1668303,5.11005916 27.1433429,3.07030967 27.0998913,2.38494239 C27.0061148,1.60929968 26.7963099,1.24134622 26.2257038,1.16425878 L25.8450349,1.12452298 L25.8450349,0.775642709 L29.8599396,0 Z M26.464357,3.96428127 L25.4876512,6.54472377 C24.2447155,5.69040419 22.9056193,6.05994708 22.6385947,6.54472377 C22.5233609,8.03799493 22.5424341,10.3267767 22.6568732,11.5116981 C22.7140927,12.2873408 22.9246924,12.6179426 23.499272,12.6759569 L24.2637887,12.7530443 L24.2637887,13.2584836 L18.5648811,13.2584836 L18.5648811,12.7530443 L19.0051537,12.6759569 C19.5590707,12.6179426 19.7513919,12.2873408 19.7887435,11.5116981 C19.9230505,10.2512787 19.9604022,7.61282193 19.7887435,6.15769713 C19.7513919,5.32404016 19.5590707,5.01410096 19.0051537,4.93542409 L18.5648811,4.87661512 L18.5648811,4.52773484 L22.6385947,3.71235634 L22.5813752,5.8859043 C23.5382131,3.6352689 25.4312264,3.36347606 26.464357,3.96428127 Z M10.7437641,0.27505117 L10.7628373,3.91882353 L10.1334223,4.1127342 C9.59857852,2.21336323 8.66399263,1.12778132 7.0419775,1.12778132 L4.92405965,1.12778132 C4.80962057,2.38820072 4.75240102,4.34399653 4.80962057,6.45635136 L6.2218307,6.37926392 C7.1770792,6.37926392 7.5768213,5.66243019 7.80649419,4.61578936 L8.34133798,4.61578936 L8.34133798,9.01295238 L7.80649419,9.01295238 C7.5768213,7.94803309 7.1770792,7.23040464 6.2218307,7.17239038 L4.80962057,7.1533172 C4.80962057,8.72208636 4.82789903,10.0595932 4.92405965,10.8725876 C5.02022028,12.0352569 5.32539118,12.5597694 6.14474326,12.6742085 L6.90846523,12.7512959 L6.90846523,13.2551458 L0,13.2551458 L0,12.7512959 L0.572195441,12.6742085 C1.37326906,12.55818 1.69910257,12.0352569 1.79367376,10.8725876 C1.94625921,8.9740113 1.98361086,4.92413913 1.79367376,2.67747731 C1.69751314,1.47507216 1.37326906,0.992679618 0.572195441,0.894929564 L0,0.798768941 L0,0.27505117 L10.7437641,0.27505117 Z M13.8782031,4.34232762 C12.5454645,4.34232762 12.1647956,6.18288962 12.1647956,8.62425684 C12.1647956,10.9893313 12.773548,12.9276434 14.0101259,12.9276434 C15.3428644,12.9276434 15.7235334,11.0290671 15.7235334,8.62425684 C15.7235334,6.2218307 15.1338542,4.34232762 13.8782031,4.34232762 Z M30.7532003,4.8263096 C30.4297509,4.8263096 30.1825943,4.88511858 29.8019253,5.02022028 L29.802042,5.33276629 L29.8029755,5.96326188 L29.8037606,6.26899947 L29.8037606,6.26899947 L29.805985,6.88019364 C29.8175149,9.52286824 29.8536376,12.0461859 29.914775,12.7528059 C30.0482873,12.8116149 30.3709419,12.8505559 30.5990254,12.8505559 C31.9142802,12.8489665 32.8647604,10.9106545 32.8647604,8.43114088 C32.8083356,6.41574138 32.1034226,4.8263096 30.7532003,4.8263096 Z M40.818277,4.34232762 C39.7907094,4.34232762 39.2193086,6.06606639 39.2010302,7.54026436 L42.0167086,7.46158749 C42.0755176,6.18288962 41.8267715,4.34232762 40.818277,4.34232762 Z M51.9368291,6.60297644 L51.4584102,6.73807815 C50.9990644,5.10811585 50.2345477,4.40956059 49.1441975,4.40956059 C48.3796808,4.40956059 47.844837,4.93327836 47.844837,5.76773004 C47.844837,6.56244593 48.4758414,6.99000308 50.1781229,7.70763153 C51.7460973,8.30843674 52.3961749,9.04672781 52.3961749,10.3254257 C52.3961749,12.2844003 50.9235664,13.5066734 48.4941199,13.5066734 C47.3266823,13.5066734 46.0082486,13.2348805 45.2628051,12.9249413 L45.1666445,10.2093972 L45.6259903,10.1116471 C46.3150089,11.9728717 47.1947594,12.671427 48.3415345,12.671427 C49.3365188,12.671427 49.8522894,11.9537985 49.8522894,11.2163022 C49.8522894,10.4796006 49.4509578,10.0520434 47.9012619,9.46951666 C46.4286533,8.9664615 45.4153906,8.30525788 45.4153906,6.67688502 C45.4153906,5.06758534 46.77356,3.70941589 49.0877727,3.70941589 C50.1781229,3.70941589 51.1723125,3.90332657 51.8215953,4.21326576 L51.9368291,6.60297644 Z" id="Combined-Shape" fill="#010101"></path>
      <path d="M38.9726288,1.68471822 L39.2444217,1.06801868 L39.5170092,1.68471822 L38.9726288,1.68471822 Z M38.1636081,2.48102354 L38.6237486,2.48102354 L38.8105068,2.0542611 L39.6775418,2.0542611 L39.8650948,2.48102354 L40.3363613,2.48102354 L39.458995,0.56416881 L39.0433585,0.56416881 L38.1636081,2.48102354 Z M40.6526582,2.48102354 L41.1048516,2.48102354 L41.1048516,1.74432191 L42.0831468,1.74432191 L42.0831468,1.36683186 L41.1048516,1.36683186 L41.1048516,0.955963744 L42.2134802,0.955963744 L42.2134802,0.578473696 L40.6526582,0.578473696 L40.6526582,2.48102354 Z M43.0256799,1.50193356 L43.0256799,0.955963744 L43.4738996,0.955963744 C43.5859546,0.955963744 43.6717839,0.978215789 43.7353612,1.02430931 C43.7981437,1.06960812 43.8291376,1.13715897 43.8291376,1.22855129 L43.8291376,1.23331959 C43.8291376,1.31517533 43.7997331,1.37954731 43.7401295,1.42802498 C43.679731,1.47729737 43.5946964,1.50193356 43.4834362,1.50193356 L43.0256799,1.50193356 Z M42.5742812,2.48102354 L43.0256799,2.48102354 L43.0256799,1.87227117 L43.3729707,1.87227117 L43.3793284,1.87227117 L43.8188063,2.48102354 L44.345703,2.48102354 L43.845032,1.80074674 C43.9761601,1.75544793 44.082652,1.68471822 44.1629183,1.58696816 C44.244774,1.49001282 44.2845098,1.363653 44.2845098,1.21106754 L44.2845098,1.20470982 C44.2845098,1.02430931 44.2257009,0.878876303 44.1080829,0.770794942 C43.9698023,0.641256252 43.7695339,0.576884265 43.5104566,0.576884265 L42.5726918,0.576884265 L42.5726918,2.48102354 L42.5742812,2.48102354 Z M44.712067,2.48102354 L45.1634656,2.48102354 L45.1634656,0.57767898 L44.712067,0.57767898 L44.712067,2.48102354 Z M46.4270639,2.07969201 C46.3515659,2.04790338 46.2871939,2.004194 46.2307691,1.95094804 C46.1751389,1.89531793 46.1314296,1.83253537 46.1012304,1.76021622 C46.0718259,1.68789708 46.0559316,1.61080964 46.0559316,1.5289539 L46.0559316,1.52259617 C46.0559316,1.44074044 46.0718259,1.363653 46.1012304,1.29292328 C46.1314296,1.22060414 46.1735495,1.15782158 46.2275902,1.1037809 C46.2808362,1.0489455 46.3452081,1.00682556 46.4207062,0.976626357 C46.4962042,0.945632438 46.5796493,0.931327552 46.6710417,0.931327552 C46.7608446,0.931327552 46.8442897,0.947221869 46.9197877,0.978215789 C46.9952857,1.01000442 47.0612472,1.0537138 47.117672,1.10695976 C47.1725074,1.16258988 47.2170115,1.22537243 47.246416,1.29769158 C47.2766152,1.37001072 47.2925095,1.44709816 47.2925095,1.5289539 L47.2925095,1.53531163 C47.2925095,1.63306168 47.2734363,1.71968571 47.2376741,1.79677316 L46.9007146,1.51305958 L46.6146168,1.81187276 L46.9476028,2.07651315 C46.8641576,2.11148065 46.77356,2.12816968 46.6789888,2.12816968 C46.5860071,2.12816968 46.5025619,2.11227536 46.4270639,2.07969201 L46.4270639,2.07969201 Z M47.5062881,2.5390378 L47.7939752,2.24340349 L47.5833755,2.07651315 C47.6413898,1.99624684 47.6874833,1.91121224 47.7184772,1.81823048 C47.7502658,1.72524873 47.7661602,1.62988282 47.7661602,1.53054333 L47.7661602,1.52418561 C47.7661602,1.3890839 47.7391398,1.26113465 47.6858938,1.14192726 C47.6318532,1.02430931 47.5563552,0.920201529 47.4609893,0.831988065 C47.3648286,0.743774601 47.2495948,0.674634319 47.1160826,0.622977786 C46.9841597,0.570526537 46.837932,0.545890345 46.6805782,0.545890345 C46.5232245,0.545890345 46.3769968,0.570526537 46.2426898,0.622977786 C46.1091775,0.674634319 45.9947384,0.745364033 45.8969884,0.835166929 C45.8008278,0.924969824 45.7237403,1.02828289 45.6704944,1.14828499 C45.6148642,1.26749237 45.5886386,1.3938522 45.5886386,1.53054333 L45.5886386,1.53690106 C45.5886386,1.67200276 45.6148642,1.79995202 45.6689049,1.9191594 C45.7221509,2.03677735 45.7976489,2.14088514 45.8938095,2.2290986 C45.9915596,2.31731206 46.1044092,2.38645235 46.2379215,2.43810888 C46.3706391,2.49056013 46.5168668,2.51519632 46.6742205,2.51519632 C46.7886596,2.51519632 46.8975357,2.50089143 47.000054,2.47307638 C47.1001882,2.44446661 47.1963489,2.40552553 47.2845623,2.35148485 L47.5062881,2.5390378 Z M49.3929436,2.45877149 C49.5042038,2.42380399 49.598775,2.37055803 49.6774519,2.29823888 C49.7561287,2.22750917 49.8157324,2.13770627 49.8570577,2.03121434 C49.8975882,1.9239277 49.9198402,1.79836259 49.9198402,1.65292958 L49.9198402,0.578473696 L49.4684416,0.578473696 L49.4684416,1.6688239 C49.4684416,1.82140935 49.4287058,1.93505372 49.3500289,2.01214116 C49.2713521,2.08763917 49.1648601,2.12658025 49.0249901,2.12658025 C48.8859148,2.12658025 48.7778335,2.08763917 48.6991566,2.0089623 C48.6204797,1.93028543 48.5823334,1.81187276 48.5823334,1.65610844 L48.5823334,0.580063128 L48.1309347,0.580063128 L48.1309347,1.66723447 C48.1309347,1.94935861 48.2096116,2.15995832 48.3685548,2.30141775 C48.527498,2.44287717 48.742866,2.51360689 49.0186324,2.51360689 C49.1585024,2.51042802 49.2824781,2.49373899 49.3929436,2.45877149 L49.3929436,2.45877149 Z M50.3807754,2.48102354 L51.9384186,2.48102354 L51.9384186,2.10830178 L50.8242269,2.10830178 L50.8242269,1.70855969 L51.7906014,1.70855969 L51.7906014,1.33583794 L50.8242269,1.33583794 L50.8242269,0.949606017 L51.9225243,0.949606017 L51.9225243,0.576884265 L50.379186,0.576884265 L50.379186,2.48102354 L50.3807754,2.48102354 Z" id="Fill-11" fill="#64C3D1"></path>
    </g>
  </g>
</svg>