<?xml version="1.0" encoding="utf-8"?>
<svg width="198" height="80" viewBox="0 0 42 17" version="1.1" xmlns="http://www.w3.org/2000/svg" xmlns:xlink="http://www.w3.org/1999/xlink" preserveAspectRatio="none">
  <!-- Generator: Sketch 63.1 (92452) - https://sketch.com -->
  <title>Masthead / Numero Art - f665</title>
  <desc>Created with Sketch.</desc>
  <g id="Masthead-/-Numero-Art---f665" stroke="none" stroke-width="1" fill="none" fill-rule="evenodd">
    <g id="Masthead-Guides-17"></g>
    <g id="Group-17" transform="translate(0.000000, 1.930616)" fill="#000000" fill-rule="nonzero">
      <path d="M11.2769323,6.78947941 L10.0089136,6.78947941 L10.0068848,6.06518712 C9.67314225,6.65151898 9.05739236,6.92135336 8.49236322,6.92135336 C7.07319667,6.92135336 6.7161226,6.12199436 6.7161226,4.91991262 L6.7161226,1.93550377 L8.04906387,1.93550377 L8.04906387,4.67645303 C8.04906387,5.47378319 8.28542256,5.86839062 8.90725894,5.86839062 C9.63256565,5.86839062 9.94399104,5.46465346 9.94399104,4.47864211 L9.94399104,1.93550377 L11.2769323,1.93550377 L11.2769323,6.78947941 Z" id="Fill-1"></path>
      <path d="M12.3270547,1.93682251 L13.5849293,1.93682251 L13.5839149,2.62561027 C13.9257727,2.11130188 14.4563117,1.80494856 15.0832202,1.80494856 C15.6918692,1.80494856 16.23661,2.03014869 16.4993435,2.61343729 C16.7813508,2.19042625 17.2875439,1.80494856 17.9611155,1.80494856 C18.9917611,1.80494856 19.7332984,2.28476684 19.7332984,3.54264141 L19.7332984,6.79079815 L18.4003571,6.79079815 L18.4003571,4.04071916 C18.4003571,3.39352241 18.3445643,2.8579113 17.5867963,2.8579113 C16.8371437,2.8579113 16.6971544,3.47771885 16.6971544,4.08839667 L16.6971544,6.79079815 L15.3642131,6.79079815 L15.3642131,4.06912278 C15.3642131,3.50612247 15.4007321,2.8579113 14.5587676,2.8579113 C14.2970486,2.8579113 13.659996,3.0273186 13.659996,3.97478219 L13.659996,6.79079815 L12.3270547,6.79079815 L12.3270547,1.93682251 Z" id="Fill-3"></path>
      <path d="M21.8301956,3.84382122 C21.8494695,3.46443002 22.0939435,2.80100262 22.9389512,2.80100262 C23.5861479,2.80100262 23.877285,3.16111994 24.0000292,3.84382122 L21.8301956,3.84382122 Z M24.6046206,0.000202882995 L23.1306756,0.000202882995 L22.2298751,1.33314416 L23.1600936,1.33314416 L24.6046206,0.000202882995 Z M25.3319561,4.69187213 C25.4262967,3.18952356 24.6289665,1.8038327 22.9764845,1.8038327 C21.5025396,1.8038327 20.4982687,2.90548737 20.4982687,4.371317 C20.4982687,5.87772324 21.4457323,6.92257066 22.9764845,6.92257066 C24.0750959,6.92257066 24.8724261,6.43869472 25.2477597,5.29443463 L24.0750959,5.29443463 C23.9898851,5.59571587 23.5577443,5.92540074 23.0231476,5.92540074 C22.2805959,5.92540074 21.867729,5.53890864 21.8301956,4.69187213 L25.3319561,4.69187213 Z" id="Fill-5"></path>
      <path d="M26.1206637,1.93682251 L27.3886825,1.93682251 L27.387668,2.86399779 C27.6382285,2.23303168 28.3087568,1.80393415 28.9559536,1.80393415 C29.0502942,1.80393415 29.1628942,1.82219362 29.2470907,1.85059724 L29.2470907,3.08209701 C29.1253609,3.05470781 28.9285644,3.03543392 28.7682868,3.03543392 C27.7914052,3.03543392 27.453605,3.73943791 27.453605,4.6057483 L27.453605,6.79079815 L26.1206637,6.79079815 L26.1206637,1.93682251 Z" id="Fill-7"></path>
      <path d="M30.8430698,4.36786799 C30.8430698,3.58473963 31.1169618,2.80059686 32.0208055,2.80059686 C32.933779,2.80059686 33.2066566,3.58473963 33.2066566,4.36786799 C33.2066566,5.14186661 32.933779,5.92499497 32.0208055,5.92499497 C31.1169618,5.92499497 30.8430698,5.14186661 30.8430698,4.36786799 Z M29.5111429,4.36786799 C29.5111429,5.91586524 30.4961398,6.92317931 32.0208055,6.92317931 C33.554601,6.92317931 34.5406123,5.91586524 34.5406123,4.36786799 C34.5406123,2.80972659 33.554601,1.80342694 32.0208055,1.80342694 C30.4961398,1.80342694 29.5111429,2.80972659 29.5111429,4.36786799 Z" id="Fill-9"></path>
      <polygon id="Fill-11" points="0.00444881506 0.0873411292 1.46824962 0.0873411292 4.28933766 4.61264632 4.28832325 0.0873411292 5.66691319 0.0873411292 5.66691319 6.79059527 4.19398265 6.79059527 1.38405318 2.26934774 1.38303876 6.79059527 0.00444881506 6.79059527"></polygon>
      <path d="M41.9213942,8.20712434 L41.9213942,9.09980951 L40.9434982,9.09980951 L40.9434982,11.5049874 C40.9434982,11.731202 40.9810316,11.8813354 41.0560983,11.9564021 C41.1321794,12.0314688 41.2823128,12.0690021 41.5075129,12.0690021 C41.5825796,12.0690021 41.6546031,12.0659589 41.7235833,12.0598724 C41.7925635,12.0537859 41.8585005,12.0446562 41.9213942,12.0314688 L41.9213942,13.0651576 C41.8087942,13.0844315 41.6830067,13.0966045 41.5450463,13.102691 C41.4070858,13.1087775 41.2721687,13.1118207 41.1402947,13.1118207 C40.9343685,13.1118207 40.7385864,13.0976189 40.5529484,13.0692153 C40.3693393,13.0418261 40.2060185,12.9870477 40.0650148,12.9048801 C39.9240112,12.8237269 39.8124255,12.7080836 39.7312723,12.5579502 C39.6501191,12.4078167 39.6095425,12.2100058 39.6095425,11.9655318 L39.6095425,9.09980951 L38.8010538,9.09980951 L38.8010538,8.20712434 L39.6095425,8.20712434 L39.6095425,6.75042444 L40.9434982,6.75042444 L40.9434982,8.20712434 L41.9213942,8.20712434 Z M36.4100777,8.20712434 L36.4100777,9.10893925 L36.4293516,9.10893925 C36.4912309,8.95880583 36.5754273,8.81983098 36.6829553,8.69100028 C36.7884545,8.56216958 36.9122131,8.45261276 37.0491591,8.36131541 C37.1871196,8.27103248 37.3342097,8.20103785 37.4904296,8.1503171 C37.6466495,8.10061077 37.8099704,8.07525039 37.9793777,8.07525039 C38.0666173,8.07525039 38.1640012,8.09148103 38.2705147,8.1229279 L38.2705147,9.36254299 C38.2086354,9.35037001 38.1335687,9.33921145 38.0453146,9.33008171 C37.9580749,9.32095198 37.8728641,9.3158799 37.7917109,9.3158799 C37.5472369,9.3158799 37.3402962,9.3564565 37.1708889,9.4376097 C37.0014816,9.5187629 36.8665644,9.63034855 36.7620797,9.77135223 C36.6596238,9.91235591 36.5855715,10.0766911 36.5409372,10.2643579 C36.4973174,10.4530391 36.4760147,10.6569365 36.4760147,10.8750357 L36.4760147,13.0651576 L35.1410446,13.0651576 L35.1410446,8.20712434 L36.4100777,8.20712434 Z M32.3787926,10.8750357 C32.2814087,10.8943096 32.1789528,10.9105402 32.0734537,10.9227132 C31.9669401,10.9348862 31.8604265,10.9511168 31.753913,10.9693763 C31.6534859,10.9886502 31.5540732,11.0140106 31.4577038,11.044443 C31.36032,11.0758899 31.2761235,11.1184953 31.2041,11.1712449 C31.1320766,11.2250089 31.0742549,11.2929747 31.0306351,11.3741279 C30.9870152,11.4552811 30.9646981,11.5587514 30.9646981,11.6835245 C30.9646981,11.802211 30.9870152,11.9036525 31.0306351,11.9848057 C31.0742549,12.0659589 31.133091,12.129867 31.2081577,12.1775445 C31.2842388,12.2242076 31.3724929,12.2566689 31.4719056,12.2759428 C31.5723327,12.2942023 31.6747886,12.3043464 31.7823166,12.3043464 C32.0450501,12.3043464 32.2489475,12.2607266 32.39198,12.1724725 C32.5370413,12.0852328 32.6435549,11.9797336 32.7125351,11.8580038 C32.7805009,11.7352596 32.8231063,11.611501 32.839337,11.4857135 C32.8545532,11.3609405 32.8626685,11.2605134 32.8626685,11.1854467 L32.8626685,10.6873689 C32.8068757,10.7380897 32.7358667,10.7766375 32.6506558,10.8050411 C32.5664594,10.8334447 32.475162,10.8567762 32.3787926,10.8750357 Z M30.5416871,8.42319473 C30.7547142,8.29740727 30.9941161,8.20813875 31.2598929,8.15538917 C31.526684,8.10162518 31.7944896,8.07525039 32.0633095,8.07525039 C32.3077835,8.07525039 32.5563152,8.09249545 32.8068757,8.12698556 C33.0564218,8.16147566 33.2856796,8.22842705 33.4916058,8.32885414 C33.6995609,8.42928122 33.8689682,8.56825607 33.9988133,8.7467931 C34.1306872,8.92533014 34.1976386,9.16168883 34.1976386,9.45688359 L34.1976386,11.9848057 C34.1976386,12.2039193 34.2087972,12.4139032 34.235172,12.613743 C34.2595179,12.8145971 34.3031378,12.9647306 34.3660315,13.0651576 L33.0128019,13.0651576 C32.9874416,12.9900909 32.9681677,12.9129954 32.951937,12.8348854 C32.9367208,12.7567755 32.9255623,12.6766367 32.9184614,12.5954835 C32.7064486,12.8145971 32.4558881,12.9677738 32.1677943,13.0560279 C31.8797004,13.1432676 31.5845057,13.1879019 31.2842388,13.1879019 C31.0519378,13.1879019 30.8358674,13.1594982 30.6350132,13.102691 C30.4351735,13.0468982 30.2596797,12.9586441 30.1085319,12.8399575 C29.9583985,12.7202566 29.8417407,12.5701231 29.7565299,12.3885429 C29.6723334,12.2069626 29.629728,11.9908922 29.629728,11.7403317 C29.629728,11.4644108 29.6784199,11.2371819 29.7758038,11.0586448 C29.8721732,10.8801078 29.9979606,10.7380897 30.1511373,10.6315761 C30.3053284,10.5250626 30.4808222,10.4449238 30.6776187,10.3911598 C30.8744152,10.3384102 31.0742549,10.2968192 31.2751091,10.2643579 C31.4749488,10.2339255 31.6717453,10.2085651 31.866513,10.1903056 C32.0602663,10.1710317 32.2327168,10.1426281 32.3838647,10.1050948 C32.5339981,10.0675614 32.6526846,10.012783 32.7399243,9.94075953 C32.8281784,9.86873606 32.868755,9.76425132 32.8626685,9.62527647 C32.8626685,9.48224396 32.839337,9.36761507 32.7926739,9.28341862 C32.7449964,9.19820777 32.6831171,9.13227079 32.6039927,9.08560771 C32.5258828,9.0379302 32.4345854,9.00749775 32.3321295,8.99126711 C32.2276448,8.97605089 32.1170735,8.96793557 31.998387,8.96793557 C31.7346391,8.96793557 31.5287128,9.02474281 31.377565,9.13734287 C31.2274316,9.24994293 31.1391775,9.4376097 31.1148315,9.70135759 L29.7798614,9.70135759 C29.7991353,9.38790337 29.8772453,9.12821313 30.0152057,8.92127248 C30.1521517,8.71433182 30.3286599,8.54796777 30.5416871,8.42319473 Z" id="Fill-14"></path>
    </g>
  </g>
</svg>