<?xml version="1.0" encoding="UTF-8"?>
<svg width="463" height="86" viewBox="0 0 463 86" xmlns="http://www.w3.org/2000/svg"><g transform="translate(.463 .44)" fill-rule="evenodd"><path d="m439.37 62.263c-1.84 5.263-5.007 7.416-10.01 7.416-6.669 0-8.028-4.784-6.507-11.364h38.017l0.583-3.229c3.63-20.096-5.555-33.254-24.452-33.254-8.115 0-17.326 2.99-24.273 9.45-6.394 5.861-11.015 14.833-12.506 23.086-1.577 8.733 0.135 17.106 5.19 22.967 5.346 6.101 13.115 8.014 21.452 8.014 13.45 0 26.909-6.818 33.034-21.65l-20.528-1.436zm-14.468-15.909c0.793-5.622 4.013-10.527 9.794-10.527 6.225 0 7.182 4.546 6.102 10.527h-15.896zm-189.13 15.909c-1.84 5.263-5.007 7.416-10.01 7.416-6.669 0-8.028-4.784-6.507-11.364h38.017l0.584-3.229c3.629-20.096-5.556-33.254-24.453-33.254-8.115 0-17.326 2.99-24.272 9.45-6.395 5.861-11.016 14.833-12.507 23.086-1.577 8.733 0.135 17.106 5.19 22.967 5.346 6.101 13.115 8.014 21.452 8.014 13.451 0 26.91-6.818 33.034-21.65l-20.528-1.436zm-14.468-15.909c0.793-5.622 4.013-10.527 9.794-10.527 6.225 0 7.182 4.546 6.102 10.527h-15.896zm-127.14 6.897s11.275-31.644 38.282-31.644c24.234 0 32.871 31.644 32.871 31.644s-11.344 32.098-37.963 32.098c-21.46 0-30.417-18.435-33.19-32.098zm15.67 0.185s6.254-18.08 21.235-18.08c13.443 0 18.234 18.08 18.234 18.08s-6.293 18.339-21.059 18.339c-11.903 0-16.872-10.533-18.41-18.339zm9.336 0.781c0-6.372 4.977-11.537 11.116-11.537 6.14 0 11.116 5.165 11.116 11.537s-4.976 11.537-11.116 11.537c-6.139 0-11.116-5.165-11.116-11.537z" fill="#77531F"/><polyline points="205.88 16.831 209.2 16.831 212.21 0.639 208.89 0.639 205.88 16.831" fill="#4D4E4C"/><path d="m217.11 4.841h-3.321l-2.23 11.99h3.321l2.23-11.99zm0.825-4.437h-3.321l-0.623 3.351h3.321l0.623-3.351z" fill="#4D4E4C"/><polyline points="234.78 4.841 232.16 4.841 228.87 12.205 228.83 12.205 228.55 4.841 225.5 4.841 222.39 12.182 222.35 12.182 221.88 4.841 218.34 4.841 219.65 16.831 222.5 16.831 225.72 9.137 225.76 9.137 226.12 16.831 229.1 16.831 234.78 4.841" fill="#4D4E4C"/><path d="m245.05 11.426c0.326-1.628 0.394-3.328-0.301-4.697-0.694-1.369-2.203-2.124-3.807-2.124-3.57 0-6.112 2.856-6.77 6.396-0.663 3.565 1.108 6.067 4.543 6.067 3.885 0 5.877-3.541 5.987-4.131l-3.029-0.236c-0.206 1.109-1.368 1.888-2.384 1.888-1.447 0-1.999-1.156-1.736-2.573l0.132-0.59h7.365zm-7.006-2.053c0.368-1.369 1.144-2.502 2.612-2.502 1.446 0 1.629 1.204 1.455 2.502h-4.067z" fill="#4D4E4C"/><polyline points="245.77 16.831 249.1 16.831 252.11 0.639 248.79 0.639 245.77 16.831" fill="#4D4E4C"/><path d="m261.62 16.831c-0.071-0.59-7e-3 -1.18 0.107-1.793l1.041-5.595c0.267-1.439 0.626-2.761-0.364-3.752-0.777-0.803-2.261-1.086-3.436-1.086-2.417 0-5.286 0.85-6.165 3.753l3.083 0.307c0.22-1.181 1.251-1.747 2.313-1.747 0.497 0 1.031 0.165 1.25 0.566 0.256 0.449 0.097 1.063 0 1.582l-0.053 0.283c-1.427 0.142-3.274 0.236-4.681 0.755-1.624 0.591-2.91 1.794-3.239 3.565-0.421 2.266 0.949 3.399 2.983 3.399 1.717 0 2.838-0.685 4.051-2.101-0.137 0.614-0.21 1.251-0.189 1.864h3.299zm-2.636-5.263c-0.158 0.85-0.268 1.558-0.882 2.313-0.499 0.614-1.179 0.992-1.857 0.992-0.926 0-1.35-0.638-1.174-1.582 0.325-1.747 2.709-2.053 4-2.195l-0.087 0.472zm20.798 5.263 2.231-11.99h-3.322l-1.198 6.444c-0.114 0.613-0.197 1.298-0.523 1.841-0.426 0.708-1.142 1.156-1.887 1.156-1.175 0-1.094-0.92-0.914-1.888l1.405-7.553h-3.322l-1.404 7.553c-0.216 1.157-0.494 2.29-0.055 3.328 0.454 1.086 1.399 1.346 2.552 1.346 1.559 0 2.878-0.779 3.702-2.29h0.045l-0.382 2.053h3.072m4.365-11.99-2.231 11.99h3.321l1.181-6.349c0.242-1.298 0.507-3.092 2.247-3.092 1.717 0 1.149 1.841 0.916 3.092l-1.181 6.349h3.321l1.182-6.349c0.118-0.637 0.271-1.581 0.625-2.148 0.354-0.566 1.03-0.92 1.617-0.92 0.7 0 1.203 0.212 1.243 0.967 0.03 0.449-0.235 1.629-0.323 2.101l-1.181 6.349h3.322l1.391-7.482c0.224-1.204 0.637-2.573 0.045-3.517-0.52-0.849-1.557-1.227-2.574-1.227-1.423 0-2.879 0.661-3.73 2.077-0.414-1.416-1.24-2.077-2.754-2.077-1.491 0-2.721 0.661-3.572 2.077h-0.045l0.342-1.841h-3.162m21.552 2.998h2.034l0.5-2.691h-2.033l0.048-0.26c0.189-1.015 0.338-1.818 1.523-1.747l1.116 0.071 0.496-2.667-1.51-0.141c-1.288-0.119-2.89 0.354-3.882 1.557-0.732 0.897-0.919 2.148-1.112 3.187h-1.333l-0.501 2.691h1.333l-1.672 8.992h3.321l1.672-8.992m11.013 8.992 2.23-11.99h-3.321l-1.198 6.444c-0.115 0.613-0.197 1.298-0.524 1.841-0.425 0.708-1.141 1.156-1.886 1.156-1.175 0-1.094-0.92-0.915-1.888l1.405-7.553h-3.321l-1.405 7.553c-0.215 1.157-0.493 2.29-0.054 3.328 0.454 1.086 1.399 1.346 2.551 1.346 1.559 0 2.879-0.779 3.702-2.29h0.045l-0.381 2.053h3.072" fill="#4D4E4C"/><polyline points="318.98 16.831 322.3 16.831 325.32 0.639 322 0.639 318.98 16.831" fill="#4D4E4C"/><path d="m334.83 16.831c-0.071-0.59-7e-3 -1.18 0.108-1.793l1.04-5.595c0.268-1.439 0.626-2.761-0.364-3.752-0.777-0.803-2.261-1.086-3.436-1.086-2.417 0-5.286 0.85-6.165 3.753l3.083 0.307c0.22-1.181 1.251-1.747 2.313-1.747 0.497 0 1.032 0.165 1.251 0.566 0.255 0.449 0.096 1.063-1e-3 1.582l-0.053 0.283c-1.427 0.142-3.274 0.236-4.681 0.755-1.624 0.591-2.91 1.794-3.239 3.565-0.421 2.266 0.95 3.399 2.983 3.399 1.717 0 2.839-0.685 4.051-2.101-0.137 0.614-0.21 1.251-0.189 1.864h3.299zm-2.636-5.263c-0.158 0.85-0.267 1.558-0.882 2.313-0.498 0.614-1.179 0.992-1.857 0.992-0.926 0-1.35-0.638-1.174-1.582 0.325-1.747 2.709-2.053 4.001-2.195l-0.088 0.472zm20.799 5.263 2.23-11.99h-3.321l-1.199 6.444c-0.114 0.613-0.196 1.298-0.523 1.841-0.426 0.708-1.142 1.156-1.887 1.156-1.175 0-1.094-0.92-0.914-1.888l1.405-7.553h-3.321l-1.405 7.553c-0.215 1.157-0.494 2.29-0.054 3.328 0.453 1.086 1.399 1.346 2.551 1.346 1.559 0 2.879-0.779 3.702-2.29h0.045l-0.382 2.053h3.073m8.243-4.791c2.192 0 5.26-0.826 5.787-3.659 0.189-1.015 0.027-1.605-0.469-2.337 0.226-0.731 0.893-1.038 1.526-1.038 0.294 0 0.574 0.071 0.859 0.118l0.417-2.242-0.908-0.095c-1.718 0-2.469 0.52-3.033 2.337-0.928-0.354-1.915-0.519-2.954-0.519-2.237 0-5.422 0.85-5.962 3.753-0.268 1.44 0.339 2.431 1.489 2.927-1.244 0.495-2.524 1.18-2.8 2.667-0.198 1.062 0.271 1.699 1.068 2.148-1.083 0.236-2.163 0.944-2.391 2.171-0.505 2.715 3.571 2.785 5.401 2.785 1.355 0 3-0.094 4.343-0.637 1.416-0.566 2.725-1.652 3.024-3.257 0.487-2.62-1.689-3.069-3.678-3.186l-1.433-0.071c-0.65-0.024-1.862-0.071-2.418-0.236-0.403-0.142-0.577-0.425-0.485-0.921 0.075-0.401 0.377-0.684 0.728-0.873l1.889 0.165zm0.825-5.523c1.039 0 1.882 0.566 1.658 1.77-0.228 1.228-1.246 1.841-2.33 1.841-1.107 0-1.712-0.637-1.492-1.817 0.211-1.133 1.101-1.794 2.164-1.794zm0.228 10.433c0.466 0.047 1.185 0.188 1.066 0.826-0.228 1.227-2.519 1.156-3.333 1.156-0.723 0-1.757-0.023-2.441-0.236-0.448-0.141-0.761-0.401-0.656-0.967 0.088-0.472 0.466-0.803 0.903-0.968l4.461 0.189zm16.995-7.742c0.296-2.809-1.494-4.603-4.16-4.603-3.615 0-6.234 2.667-6.919 6.349-0.659 3.541 0.919 6.114 4.398 6.114 2.801 0 5.277-1.771 6.101-4.745l-3.127-0.189c-0.32 1.11-1.087 2.077-2.262 2.077-1.898 0-1.534-2.077-1.262-3.54 0.285-1.534 0.863-3.423 2.693-3.423 1.197 0 1.542 1.063 1.34 2.148l3.198-0.188" fill="#4D4E4C"/><polyline points="397.28 4.841 394.66 4.841 391.37 12.205 391.32 12.205 391.04 4.841 387.99 4.841 384.89 12.182 384.84 12.182 384.38 4.841 380.83 4.841 382.15 16.831 385 16.831 388.21 9.137 388.26 9.137 388.61 16.831 391.59 16.831 397.28 4.841" fill="#4D4E4C"/><path d="m407.55 11.426c0.326-1.628 0.393-3.328-0.301-4.697s-2.203-2.124-3.807-2.124c-3.57 0-6.112 2.856-6.77 6.396-0.663 3.565 1.108 6.067 4.542 6.067 3.886 0 5.878-3.541 5.987-4.131l-3.028-0.236c-0.207 1.109-1.368 1.888-2.385 1.888-1.446 0-1.999-1.156-1.735-2.573l0.132-0.59h7.365zm-7.006-2.053c0.368-1.369 1.143-2.502 2.612-2.502 1.446 0 1.629 1.204 1.455 2.502h-4.067z" fill="#4D4E4C"/><polyline points="408.27 16.831 411.59 16.831 414.6 0.639 411.28 0.639 408.27 16.831" fill="#4D4E4C"/><path d="m425.23 11.426c0.325-1.628 0.393-3.328-0.302-4.697-0.694-1.369-2.203-2.124-3.807-2.124-3.57 0-6.112 2.856-6.77 6.396-0.663 3.565 1.109 6.067 4.543 6.067 3.885 0 5.877-3.541 5.987-4.131l-3.029-0.236c-0.206 1.109-1.368 1.888-2.385 1.888-1.445 0-1.999-1.156-1.735-2.573l0.132-0.59h7.366zm-7.007-2.053c0.368-1.369 1.144-2.502 2.612-2.502 1.446 0 1.629 1.204 1.455 2.502h-4.067z" fill="#4D4E4C"/><polyline points="199.71 2.095 177.7 2.095 162.88 84.154 184.89 84.154 199.71 2.095" fill="#77531F"/><polyline points="405.04 23.028 389.59 23.028 376.3 52.933 374.59 23.028 358.13 23.028 345.73 52.933 345.51 52.933 343.57 23.028 321.67 23.028 328.98 84.154 344.76 84.154 358.41 51.019 358.64 51.019 359.99 84.154 376 84.154 405.04 23.028" fill="#77531F"/><polyline points="309.36 68.962 284.12 68.962 314.43 35.947 316.76 23.028 269.63 23.028 266.93 37.981 281.72 37.981 288.88 37.741 258.88 70.876 256.48 84.154 306.62 84.154 309.36 68.962" fill="#77531F"/><path d="m34.356 66.809c1.675 14.115 12.548 18.54 25.22 18.54 12.783 0 30.21-4.784 33.256-21.65 1.188-6.579-0.619-11.962-5.195-15.551-4.018-2.99-9.647-3.828-14.63-4.545-2.603-0.359-6.985-0.718-9.301-1.436-1.38-0.359-3.119-1.196-2.773-3.11 0.475-2.632 5.919-3.23 7.697-3.23 3.891 0 8.01 1.197 8.922 5.383l17.411-3.469c-1.705-11.483-12.133-15.909-22.805-15.909-6.336 0-12.845 0.957-19.073 4.665-5.983 3.589-10.423 9.091-11.676 16.029-2.938 16.268 10.726 18.78 22.296 20.575 1.958 0.239 9.409 0.837 8.847 3.947-0.648 3.588-6.916 3.828-9.14 3.828-4.779 0-10.764-0.718-10.928-6.579l-18.128 2.512" fill="#77531F"/><polyline points="39.77 2.095 16.204 2.095 1.386 84.154 24.951 84.154 39.77 2.095" fill="#77531F"/><polyline points="198.78 1.244 176.77 1.244 161.95 83.302 183.96 83.302 198.78 1.244" fill="#1A1919"/><polyline points="404.11 22.177 388.66 22.177 375.37 52.081 373.65 22.177 357.2 22.177 344.8 52.081 344.58 52.081 342.64 22.177 320.74 22.177 328.04 83.302 343.83 83.302 357.48 50.168 357.7 50.168 359.06 83.302 375.06 83.302 404.11 22.177" fill="#1A1919"/><polyline points="308.43 68.111 283.19 68.111 313.5 35.096 315.83 22.177 268.7 22.177 266 37.129 280.79 37.129 287.94 36.89 257.95 70.024 255.55 83.302 305.68 83.302 308.43 68.111" fill="#1A1919"/><path d="m33.424 65.957c1.675 14.115 12.548 18.541 25.22 18.541 12.784 0 30.211-4.784 33.256-21.651 1.189-6.579-0.618-11.962-5.195-15.55-4.017-2.991-9.647-3.828-14.63-4.546-2.603-0.358-6.985-0.717-9.301-1.435-1.38-0.359-3.119-1.196-2.773-3.11 0.475-2.632 5.919-3.23 7.698-3.23 3.89 0 8.01 1.196 8.921 5.383l17.411-3.469c-1.705-11.484-12.133-15.909-22.804-15.909-6.337 0-12.846 0.957-19.073 4.665-5.984 3.588-10.424 9.091-11.677 16.029-2.938 16.268 10.726 18.78 22.296 20.574 1.958 0.239 9.409 0.838 8.847 3.948-0.648 3.588-6.916 3.827-9.139 3.827-4.78 0-10.764-0.717-10.929-6.579l-18.128 2.512" fill="#1A1919"/><polyline points="38.839 1.244 15.274 1.244 0.454 83.302 24.02 83.302 38.839 1.244" fill="#1A1919"/><path d="m234.84 61.412c-1.839 5.263-5.007 7.416-10.009 7.416-6.67 0-8.029-4.785-6.508-11.364h38.017l0.584-3.229c3.629-20.096-5.556-33.254-24.453-33.254-8.114 0-17.325 2.99-24.272 9.449-6.394 5.862-11.016 14.833-12.506 23.087-1.577 8.732 0.134 17.106 5.189 22.967 5.346 6.1 13.115 8.014 21.452 8.014 13.451 0 26.91-6.818 33.034-21.651l-20.528-1.435zm-14.467-15.909c0.793-5.623 4.013-10.527 9.793-10.527 6.225 0 7.183 4.545 6.102 10.527h-15.895zm218.06 15.909c-1.839 5.263-5.007 7.416-10.009 7.416-6.67 0-8.029-4.785-6.508-11.364h38.018l0.582-3.229c3.63-20.096-5.555-33.254-24.452-33.254-8.115 0-17.325 2.99-24.272 9.449-6.394 5.862-11.016 14.833-12.506 23.087-1.578 8.732 0.134 17.106 5.19 22.967 5.345 6.1 13.114 8.014 21.451 8.014 13.45 0 26.909-6.818 33.034-21.651l-20.528-1.435zm-14.468-15.909c0.793-5.623 4.013-10.527 9.794-10.527 6.225 0 7.182 4.545 6.102 10.527h-15.896z" fill="#1A1919"/><polyline points="198.32 0 176.32 0 161.5 82.058 183.51 82.058 198.32 0" fill="#00773E"/><polyline points="403.66 20.933 388.21 20.933 374.91 50.838 373.2 20.933 356.75 20.933 344.34 50.838 344.12 50.838 342.18 20.933 320.29 20.933 327.59 82.058 343.38 82.058 357.03 48.924 357.25 48.924 358.6 82.058 374.61 82.058 403.66 20.933" fill="#00773E"/><polyline points="307.97 66.867 282.74 66.867 313.05 33.852 315.38 20.933 268.25 20.933 265.55 35.886 280.33 35.886 287.49 35.646 257.5 68.781 255.1 82.058 305.23 82.058 307.97 66.867" fill="#00773E"/><path d="m32.97 64.714c1.675 14.115 12.548 18.541 25.22 18.541 12.784 0 30.211-4.785 33.257-21.651 1.188-6.579-0.619-11.962-5.196-15.551-4.017-2.99-9.646-3.828-14.63-4.545-2.603-0.359-6.985-0.718-9.301-1.436-1.38-0.359-3.119-1.196-2.773-3.11 0.475-2.631 5.919-3.229 7.698-3.229 3.89 0 8.01 1.196 8.921 5.382l17.412-3.469c-1.706-11.483-12.134-15.909-22.805-15.909-6.337 0-12.846 0.957-19.073 4.665-5.984 3.589-10.424 9.091-11.677 16.029-2.938 16.268 10.726 18.78 22.296 20.574 1.958 0.24 9.409 0.838 8.847 3.948-0.648 3.589-6.916 3.828-9.139 3.828-4.78 0-10.764-0.718-10.929-6.579l-18.128 2.512" fill="#00773E"/><polyline points="38.386 0 14.819 0 0 82.058 23.567 82.058 38.386 0" fill="#00773E"/><path d="m234.39 60.168c-1.84 5.263-5.008 7.417-10.01 7.417-6.67 0-8.029-4.785-6.507-11.364h38.017l0.583-3.23c3.629-20.096-5.556-33.254-24.453-33.254-8.114 0-17.325 2.991-24.272 9.45-6.394 5.861-11.016 14.833-12.506 23.086-1.577 8.732 0.134 17.106 5.19 22.967 5.345 6.101 13.114 8.015 21.451 8.015 13.451 0 26.91-6.819 33.034-21.651l-20.527-1.436zm-14.468-15.909c0.793-5.622 4.013-10.526 9.793-10.526 6.225 0 7.183 4.545 6.103 10.526h-15.896zm218.06 15.909c-1.839 5.263-5.007 7.417-10.01 7.417-6.669 0-8.028-4.785-6.506-11.364h38.016l0.584-3.23c3.629-20.096-5.555-33.254-24.453-33.254-8.114 0-17.325 2.991-24.272 9.45-6.394 5.861-11.016 14.833-12.506 23.086-1.577 8.732 0.134 17.106 5.189 22.967 5.346 6.101 13.115 8.015 21.452 8.015 13.451 0 26.91-6.819 33.034-21.651l-20.528-1.436zm-14.467-15.909c0.793-5.622 4.013-10.526 9.793-10.526 6.225 0 7.183 4.545 6.103 10.526h-15.896z" fill="#00773E"/><path d="m94.162 52.4s11.275-31.644 38.282-31.644c24.234 0 32.871 31.644 32.871 31.644s-11.344 32.098-37.963 32.098c-21.46 0-30.417-18.436-33.19-32.098zm15.67 0.185s6.254-18.08 21.235-18.08c13.443 0 18.234 18.08 18.234 18.08s-6.293 18.339-21.059 18.339c-11.903 0-16.872-10.534-18.41-18.339zm9.336 0.781c0-6.372 4.977-11.537 11.116-11.537 6.14 0 11.116 5.165 11.116 11.537 0 6.371-4.976 11.537-11.116 11.537-6.139 0-11.116-5.166-11.116-11.537z" fill="#1A1919"/><path d="m118.24 52.466c0-6.372 4.977-11.537 11.116-11.537 6.14 0 11.117 5.165 11.117 11.537 0 6.371-4.977 11.536-11.117 11.536-6.139 0-11.116-5.165-11.116-11.536" fill="#4D4E4C"/><path d="m93.23 51.499s11.275-31.643 38.282-31.643c24.235 0 32.871 31.643 32.871 31.643s-11.343 32.099-37.963 32.099c-21.459 0-30.416-18.436-33.19-32.099zm15.67 0.185s6.255-18.079 21.235-18.079c13.443 0 18.234 18.079 18.234 18.079s-6.292 18.34-21.058 18.34c-11.904 0-16.872-10.534-18.411-18.34z" fill="#00713A"/></g></svg>
