<?xml version="1.0" encoding="UTF-8"?> <svg xmlns="http://www.w3.org/2000/svg" xmlns:xlink="http://www.w3.org/1999/xlink" width="100.997" height="90" viewBox="0 0 100.997 90"><defs><clipPath id="clip-path"><path id="Clip_7" data-name="Clip 7" d="M0,0H11.654V13H0Z" transform="translate(0)" fill="none"></path></clipPath></defs><g id="Group_5" data-name="Group 5" transform="translate(-0.003 0)"><path id="Fill_1" data-name="Fill 1" d="M39.955,70c-2.578,0-5.191-1.27-8.471-4.118H10.255L0,65.88,1.711,63h14.3l2.212,0h.023l2.189,0c1.084,0,1.978,0,2.815-.006,1.616-.008,3.2-.026,4.875-.046h.013l2.025-.023c-.263-1.341-.98-1.576-1.646-1.628-.461-.037-.925-.042-1.358-.042H26.29l-5.4-.023h-.234c-5.542-.023-11.271-.047-16.9-.077a1.016,1.016,0,0,1-.373-.119c-.106-.046-.236-.1-.409-.169l1.273-2.432L4.26,58.4H7.25c1.515,0,3.053,0,4.54.007l.709,0h.148c1.791,0,3.643.01,5.464.01,3.433,0,6.218-.018,8.764-.057l.245,0a5.71,5.71,0,0,1,5.234,2.394l.681-.569.64-.534c-.9-2.073-2.5-3.079-5.186-3.262-.6-.041-1.246-.059-2.037-.059-.5,0-1,.007-1.487.014s-.992.014-1.486.014H5.62c.43-.954.726-1.612,1.039-2.305l.144-.32c.358-.027.707-.06,1.044-.092.714-.067,1.388-.13,2.065-.133.726,0,1.495,0,2.351,0,1.173,0,2.367,0,3.521.005h.4c1.475,0,2.7.007,3.981.007,2.407,0,4.37-.012,6.177-.037l.332,0a13.487,13.487,0,0,1,5.252.9,9.124,9.124,0,0,1,4.13,3.45.811.811,0,0,0,.319.221c.084.043.179.091.285.155l.91-.453.012-.006L38.1,57.5c-2.189-3.937-4.986-5.771-8.8-5.771h-.165c-2.17.03-4.493.044-7.309.044-1.918,0-3.868-.006-5.754-.013h-.006c-1.556-.005-3.165-.011-4.752-.012-.6,0-1.214-.022-1.92-.046-.355-.012-.73-.025-1.145-.037l1.175-2.4.186-.381h2.762c1.653,0,3.325,0,4.942.006s3.294.006,4.942.006c2.529,0,4.609-.007,6.544-.023h.149a13.022,13.022,0,0,1,4.823.822,10.038,10.038,0,0,1,4,2.863,1.845,1.845,0,0,0,.424.32c.1.063.213.134.34.222V46.774a49.374,49.374,0,0,1-12.172-2.139A64.98,64.98,0,0,1,14.82,39.793c.583-1.118,1.089-2.088,1.666-3.2.223-.02.452-.046.674-.072a13.982,13.982,0,0,1,1.473-.116c.608,0,1.256-.007,2.039-.007l1.673,0h.232q.937,0,1.875,0c.858,0,1.575,0,2.255-.008h.256a18.089,18.089,0,0,1,10.581,2.954,1.613,1.613,0,0,0,.523.189c.12.03.255.064.407.111v-3.4c-.394-.153-.794-.3-1.18-.436a24.926,24.926,0,0,1-2.45-.983,14.082,14.082,0,0,1-6.912-6.946,13.882,13.882,0,0,1-.443-9.8A41.115,41.115,0,0,1,32.06,8.9c.779-1.288,1.584-2.619,2.336-4l.6.915,2.183,3.3L37.9,8.085l.5-.718c-.688-1.247-1.362-2.467-2.072-3.75l-.6-1.086L37.3.041c.94,1.506,1.767,2.828,2.643,4.228l.124.2L41.208,2.6,42.8,0l.847,1.3,0,.007.769,1.179-.632,1.147c-.5.907-.972,1.764-1.454,2.629a2.022,2.022,0,0,0,.661,2.82l.573-.879.037-.057c.647-.991,1.259-1.931,1.866-2.863.094.049.185.087.265.119a.614.614,0,0,1,.312.195c.549.972,1.12,1.954,1.671,2.9,1.352,2.329,2.748,4.735,3.957,7.185a14.148,14.148,0,0,1,.254,12.686,13.817,13.817,0,0,1-9.473,7.493,3.307,3.307,0,0,0-.537.182c-.106.042-.224.089-.358.138-.013.166-.03.336-.046.5-.036.37-.073.752-.078,1.13s.021.734.052,1.2c.015.225.032.477.048.757.231-.114.441-.212.627-.3a8.782,8.782,0,0,0,.935-.48,17.609,17.609,0,0,1,9.273-2.572c1.159-.02,2.431-.029,3.887-.029,1.26,0,2.539.007,3.776.014l1.248.007c.493,0,.992.043,1.521.085.261.021.53.043.815.061l.222.4L65.373,39.7a63.055,63.055,0,0,1-11.487,4.886,49.638,49.638,0,0,1-12.273,2.173v6.2a.932.932,0,0,1,.1,0h.034c.058,0,.1,0,.119-.028,2.458-2.787,5.677-4.086,10.128-4.086.223,0,.453,0,.685.01,1.715.047,3.553.069,5.783.069,1.508,0,3.039-.01,4.519-.02,1.46-.01,2.969-.019,4.454-.02h2.918c.354.529.695,1.039,1.089,1.63l.045.068.586.877c-.318.044-.6.092-.847.134a7.551,7.551,0,0,1-1.239.145c-1.628.005-3.284.02-4.885.035H65.1c-1.969.018-4,.037-6.006.037-2.765,0-5.053-.036-7.2-.112-.176-.006-.352-.009-.523-.009-4.187,0-7.139,1.841-9.29,5.795a2.193,2.193,0,0,0,1.265.5,1.38,1.38,0,0,0,1.138-.661c2.4-3.365,5.822-3.829,9.156-3.829.251,0,.51,0,.792.008,5.28.106,10.516.158,15.579.208h.11c.58,0,1.152-.043,1.815-.093.341-.026.694-.052,1.076-.075l.8,1.271.841,1.342c-.412.032-.781.067-1.105.1-.634.06-1.135.108-1.647.109q-2.083,0-4.166.012H67.7c-2.177.007-4.428.014-6.646.014-3.341,0-6.091-.017-8.655-.052h-.147a6.266,6.266,0,0,0-5.794,3.222l.265.282.025.027.891.95c1.557-2.254,3.723-2.443,5.808-2.443.241,0,.482,0,.707.006,2.313.03,4.822.045,7.9.045,1.792,0,3.613,0,5.375-.009h.011c1.761,0,3.583-.009,5.374-.009h2.95l.871,1.382.027.044.749,1.189c-.8.03-1.539.063-2.258.1-1.453.066-2.823.128-4.164.134-1.772.008-3.656.012-5.93.012q-2.5,0-5.006,0H58.41l-3.879,0H53.517c-.663,0-1.348,0-2.015.065-.835.081-1.356.578-1.691,1.611H78.354l1.095,1.9.552.955c-2.006.1-3.865.115-5.259.115-.769,0-1.529,0-2.263-.009h-.015c-.71,0-1.445-.009-2.165-.009l-.9,0c-1.272.007-2.642.01-4.311.01l-3.111,0h-.024l-3.135,0h-10.1C45.232,68.73,42.531,70,39.955,70Zm.1-9.743h0a7.393,7.393,0,0,0-6.32,3.51,8.236,8.236,0,0,0,6.489,3.353,7.292,7.292,0,0,0,6.14-3.363,7.385,7.385,0,0,0-6.309-3.5ZM26.922,39.226c-.915,0-1.842.007-2.739.015h-.016l-1.31.01a5.461,5.461,0,0,0-.809.094c-.211.034-.474.075-.809.122A40.151,40.151,0,0,0,38.674,43.7c-2.809-2.877-5.9-4.374-9.184-4.445C28.718,39.234,27.878,39.226,26.922,39.226Zm24.163-.007c-3.357,0-6.4,1.385-9.291,4.233.217,0,.449.007.709.007a31.871,31.871,0,0,0,15.809-4.027c-1.612-.138-3.236-.156-4.808-.175-.688-.008-1.4-.016-2.1-.034C51.3,39.22,51.192,39.219,51.086,39.219ZM34.448,10.369q-.6,1.128-1.174,2.192l0,.008c-.834,1.553-1.621,3.018-2.389,4.5a10.693,10.693,0,0,0-1.122,6.321c.515,4.229,2.636,7.281,6.133,8.827a10.705,10.705,0,0,0,4.327.967,9.653,9.653,0,0,0,5.956-2.121,11.116,11.116,0,0,0,3.46-12.977A43.484,43.484,0,0,0,47,12.95c-.391-.687-.8-1.4-1.175-2.1-.04-.075-.144-.116-.276-.167-.071-.028-.153-.06-.237-.1l-.44.746-.011.018-.458.776c.376.689.75,1.36,1.111,2.009l0,0c.79,1.418,1.537,2.757,2.223,4.138a8.97,8.97,0,0,1,.521,6.736,9.1,9.1,0,0,1-4.246,5.216,7.859,7.859,0,0,1-3.871,1.04,9.059,9.059,0,0,1-7.764-4.9,9.175,9.175,0,0,1-.971-4.247,9.564,9.564,0,0,1,1.143-4.175c.714-1.373,1.449-2.693,2.228-4.09.338-.607.688-1.234,1.032-1.86l-.233-.277,0,0-1.132-1.341Zm2.7,4.613h0c-.294.551-.6,1.082-.889,1.6a27.609,27.609,0,0,0-1.677,3.273,6.311,6.311,0,0,0,.6,5.9,5.958,5.958,0,0,0,4.927,2.666c.2,0,.4-.01.594-.029a5.711,5.711,0,0,0,4.363-2.832,6.545,6.545,0,0,0,.381-5.871,28.671,28.671,0,0,0-1.614-3.094c-.211-.366-.428-.745-.637-1.122-.043-.078-.154-.119-.294-.172-.077-.029-.165-.063-.258-.108l-.349.863-.01.026-.3.746c.232.452.465.883.691,1.3a25.12,25.12,0,0,1,1.295,2.626,4.123,4.123,0,0,1-2.152,5.421,7.018,7.018,0,0,1-1.259.4c-.189.047-.384.095-.569.149-.132-.041-.26-.076-.384-.111a5.342,5.342,0,0,1-.722-.237A4.867,4.867,0,0,1,36,23.689a4.86,4.86,0,0,1,.6-3.889c.18-.339.37-.68.554-1.01.221-.4.448-.8.66-1.212.473-.914.274-1.69-.665-2.595Zm2.935,4.271c-.651,1.412-1.1,2.391-1.481,3.209.424.9.868,1.317,1.4,1.317a1.433,1.433,0,0,0,.7-.21,1.476,1.476,0,0,0,.517-1.971,11.707,11.707,0,0,0-.609-1.3c-.151-.295-.322-.628-.524-1.042Zm.073-8.892c-1.134,1.031-1.262,1.925-.417,2.9a.531.531,0,0,0,.313.1c.078.012.166.025.261.049l.494-.72.039-.056.357-.52C40.852,11.524,40.541,11,40.158,10.361Z" transform="translate(10)" fill="#fff"></path><g id="Group_16" data-name="Group 16" transform="translate(0 77)"><path id="Fill_4" data-name="Fill 4" d="M.112.03C1.147-.023,2.151.011,3.234.007L7.972,9.3,8.086,9.3V.159A5.553,5.553,0,0,1,10.6.134a27.468,27.468,0,0,1,.064,3.184c.016,1.05,0,2.1,0,3.152q0,1.622,0,3.244V12.95c-.588.015-1.1.033-1.606.039s-1.039,0-1.641,0L2.586,3.465v9.423a9.912,9.912,0,0,1-2.4.075c-.055-.063-.077-.085-.1-.11a.2.2,0,0,1-.047-.076A2.487,2.487,0,0,1,0,12.411Q0,6.432.011.453A2.639,2.639,0,0,1,.112.03" transform="translate(76.721)" fill="#fff"></path><g id="Group_8" data-name="Group 8" transform="translate(89.346)"><path id="Clip_7-2" data-name="Clip 7" d="M0,0H11.654V13H0Z" transform="translate(0)" fill="none"></path><g id="Group_8-2" data-name="Group 8" clip-path="url(#clip-path)"><path id="Fill_6" data-name="Fill 6" d="M11.654,5.667v6.677c-.516.122-1.027.264-1.548.362a12.232,12.232,0,0,1-5.487-.037A5.611,5.611,0,0,1,.135,8.055a7.5,7.5,0,0,1,.294-3.9A5.97,5.97,0,0,1,5.324.2a12.511,12.511,0,0,1,5.211.166,8.158,8.158,0,0,1,.782.264l-.253,2.1A8.668,8.668,0,0,0,7.9,2.108c-1.96-.053-3.67.519-4.574,2.454a4.613,4.613,0,0,0,.135,4.259A4.062,4.062,0,0,0,6.8,10.933a5.339,5.339,0,0,0,2.169-.227c.012-.463.03-.962.037-1.46s0-1.013,0-1.62H6.382a5.279,5.279,0,0,1-.074-1.918,28.043,28.043,0,0,1,5.346-.04" transform="translate(0)" fill="#fff"></path></g></g><path id="Fill_9" data-name="Fill 9" d="M7.425,13a10.422,10.422,0,0,1-1.294-.093c-.03-.072-.063-.147-.1-.224-.081-.183-.164-.371-.233-.568-.3-.858-.616-1.764-1.015-2.939S4.029,7.648,3.213,7.648a5.215,5.215,0,0,0-.79.074v5.163a6.164,6.164,0,0,1-1.174.1c-.378,0-.748-.027-1.106-.052C0,12.291-.054,1.3.078.157A.515.515,0,0,0,.121.117C.152.087.183.056.214.055.923.027,1.682,0,2.427,0A20.673,20.673,0,0,1,5.4.187a3.621,3.621,0,0,1,.634.175l.095.032a2.839,2.839,0,0,1,1.81,1.938,3.726,3.726,0,0,1-.5,3.212,3.168,3.168,0,0,1-1.345.97c.087.145.18.286.269.423a5.021,5.021,0,0,1,.509.9c.468,1.184.92,2.4,1.356,3.577q.254.686.509,1.368A3.217,3.217,0,0,1,7.425,13ZM3.622,2.222c-.178,0-.359.005-.551.011-.207.006-.419.013-.642.013q0,.268-.009.534v.008c-.016.884-.033,1.8.032,2.7a7,7,0,0,0,.771.047,4.024,4.024,0,0,0,1.292-.2A1.424,1.424,0,0,0,5.559,3.958a1.414,1.414,0,0,0-1.276-1.7,5,5,0,0,0-.661-.037Z" transform="translate(40.788 0)" fill="#fff"></path><path id="Fill_11" data-name="Fill 11" d="M11.331,13c-.192,0-.386,0-.558-.005s-.349,0-.531,0c-.161,0-.307,0-.445.006l-.667-1.8-.122-.329-.292-.786a6.594,6.594,0,0,0-1.082-.073c-.2,0-.4,0-.576.009H7c-.176,0-.357.007-.535.007l-.218,0c-.281-.006-.582-.008-.949-.008l-.74,0-.786,0c-.379.98-.751,1.947-1.128,2.923H0C.6,11.24,1.237,9.578,1.848,7.971q.3-.781.592-1.561C3,4.921,3.568,3.4,4.115,1.93c.24-.645.478-1.287.718-1.93h2.9c1.621,4.285,3.241,8.565,4.892,12.928A10.106,10.106,0,0,1,11.331,13ZM6.379,7.909c.1,0,.2,0,.3,0h.059c.118,0,.239,0,.362,0a5.372,5.372,0,0,0,.859-.059L7.467,6.405l-.022-.066L6.26,2.813a29.217,29.217,0,0,0-1.636,5.1h.963c.247,0,.451,0,.64-.006Z" transform="translate(63.125)" fill="#fff"></path><path id="Fill_13" data-name="Fill 13" d="M.046,0H7.634a9.538,9.538,0,0,1,.112,2.1c-1.692.126-3.309-.012-4.94.088a3.4,3.4,0,0,0-.124,1.459c-.021.459,0,.92,0,1.457,1.549.136,3.039-.018,4.558.1a4.918,4.918,0,0,1,.029,2.08c-1.5.194-2.992-.027-4.56.137-.009.571-.022,1.12-.027,1.669s0,1.11,0,1.742c1.692.13,3.336-.033,4.953.094a3.99,3.99,0,0,1,.034,1.945,63.649,63.649,0,0,1-7.531.035.432.432,0,0,1-.067-.064.161.161,0,0,1-.033-.084Q.014,6.661,0,.564C0,.412.024.26.046,0" transform="translate(31.077)" fill="#fff"></path><path id="Fill_15" data-name="Fill 15" d="M2.765,10.895h5v1.964a59.978,59.978,0,0,1-7.577.04C0,12.146-.065,5.052.075.09A14.693,14.693,0,0,1,2.561.016C3.437,0,4.313,0,5.189.015A18.968,18.968,0,0,1,7.759.083V2.139c-1.624.17-3.273-.036-4.952.12V5.1a9.609,9.609,0,0,0,2.216.093c.743.02,1.487,0,2.226,0a4.586,4.586,0,0,1,.105,2.067,7.646,7.646,0,0,1-2.215.116c-.746.025-1.495.006-2.334.006-.1,1.162-.04,2.261-.041,3.51" transform="translate(10.683)" fill="#fff"></path><path id="Fill_17" data-name="Fill 17" d="M1.168,13a5.787,5.787,0,0,1-1.03-.1C0,12.261-.052,1.518.081.131.108.12.135.106.165.091a.462.462,0,0,1,.2-.067c.288,0,.582,0,.866-.01l.126,0C1.672.006,2,0,2.317,0A12.151,12.151,0,0,1,4.555.173,3.915,3.915,0,0,1,6.842,1.331a3.743,3.743,0,0,1,.908,2.96C7.556,6.474,6.454,7.72,4.473,8c-.446.062-.9.108-1.386.156H3.079c-.223.022-.455.045-.7.071v4.6A4,4,0,0,1,1.168,13ZM3.37,2.218c-.144,0-.288.006-.44.012s-.313.013-.475.013a14.249,14.249,0,0,0,.051,3.669c.133,0,.273,0,.4.007s.269.007.4.007a4.793,4.793,0,0,0,.5-.023A1.5,1.5,0,0,0,5.08,5.021a2.113,2.113,0,0,0-.017-1.872,1.647,1.647,0,0,0-1.177-.893A3.029,3.029,0,0,0,3.37,2.218Z" transform="translate(0 0)" fill="#fff"></path><path id="Fill_19" data-name="Fill 19" d="M.089.108A72.235,72.235,0,0,1,8.74.154v2c-1.029.11-2.048,0-3.108.066,0,3.562,0,7.092,0,10.7a8.893,8.893,0,0,1-2.387.008c-.016-3.548,0-7.055-.011-10.644-1.038-.2-2.062.029-3.094-.144A4.549,4.549,0,0,1,.089.108" transform="translate(19.423)" fill="#fff"></path><path id="Fill_21" data-name="Fill 21" d="M0,.087A11.914,11.914,0,0,1,2.615.057a16.067,16.067,0,0,1,.079,2.671c.019.894,0,1.788,0,2.683v5.456c1.678.035,3.291-.005,4.917.023a4.667,4.667,0,0,1,.1,1.928,49.6,49.6,0,0,1-7.668.066C.035,12.582,0,12.256,0,11.93Q0,6.843,0,1.755Z" transform="translate(54.385)" fill="#fff"></path></g></g></svg> 