<svg xmlns="http://www.w3.org/2000/svg" width="217" height="45" viewBox="0 0 217 45" fill="none"><rect x="0" y="0" width="217" height="45" fill="#ffffff" /><g id="ACTION_CO_black 1" clip-path="url(#clip0_8108_22066)"><path id="Vector" d="M121.84 44.244H129.403V0.756H122.823V26.773L115.26 0.756H106.033V44.244H112.689V12.782L121.84 44.244ZM81.605 33.807C81.605 40.765 85.537 44.773 92.798 44.773C100.059 44.773 103.991 40.765 103.991 33.807V11.193C103.991 4.235 100.059 0.227 92.798 0.227C85.537 0.227 81.605 4.235 81.605 11.193V33.807ZM88.941 10.739C88.941 7.639 90.454 6.429 92.798 6.429C95.142 6.429 96.655 7.639 96.655 10.739V34.185C96.655 37.286 95.142 38.496 92.798 38.496C90.454 38.496 88.941 37.286 88.941 34.185V10.739ZM72.151 44.244H79.563V0.756H72.151V44.244ZM48.1 6.958H55.815V44.244H63.227V6.958H70.941V0.756H48.1V6.958ZM41.142 28.059V34.261C41.142 37.361 39.63 38.496 37.285 38.496C34.941 38.496 33.428 37.361 33.428 34.261V10.815C33.428 7.714 34.941 6.504 37.285 6.504C39.63 6.504 41.142 7.714 41.142 10.815V15.504H48.1V11.269C48.1 4.311 44.319 0.303 37.134 0.303C29.874 0.303 26.168 4.311 26.168 11.269V33.882C26.168 40.84 29.949 44.849 37.134 44.849C44.395 44.849 48.1 40.84 48.1 33.882V28.134H41.142V28.059ZM12.781 8.471L16.336 30.479H9.227L12.781 8.471ZM18.529 0.756H7.714L0.227 44.244H7.033L8.319 36.378H17.395L18.68 44.244H26.092L18.529 0.756Z" fill="black" /><path id="Vector_2" d="M155.042 33.807C155.042 40.765 158.975 44.773 166.236 44.773C173.496 44.773 177.429 40.765 177.429 33.807V11.193C177.429 4.235 173.496 0.227 166.236 0.227C158.975 0.227 155.042 4.235 155.042 11.193V33.807ZM162.378 10.739C162.378 7.639 163.891 6.429 166.236 6.429C168.58 6.429 170.093 7.639 170.093 10.739V34.185C170.093 37.286 168.58 38.496 166.236 38.496C163.891 38.496 162.378 37.286 162.378 34.185V10.739ZM146.194 28.059V34.261C146.194 37.361 144.681 38.496 142.336 38.496C139.992 38.496 138.479 37.361 138.479 34.261V10.815C138.479 7.714 139.992 6.504 142.336 6.504C144.681 6.504 146.194 7.714 146.194 10.815V15.504H153.152V11.269C153.152 4.311 149.37 0.303 142.185 0.303C134.925 0.303 131.219 4.311 131.219 11.269V33.882C131.219 40.84 135 44.849 142.185 44.849C149.446 44.849 153.152 40.84 153.152 33.882V28.134H146.194V28.059Z" fill="#E8299B" /><path id="Vector_3" d="M185.218 41.294C185.218 39.101 184.008 37.815 181.89 37.815C179.773 37.815 178.562 39.101 178.562 41.294C178.562 43.487 179.773 44.773 181.89 44.773C184.008 44.773 185.218 43.412 185.218 41.294ZM216.302 20.874C216.378 20.496 216.151 20.269 215.773 20.269C212.294 20.345 210.176 21.403 207.756 23.748C207.151 24.277 206.924 24.126 206.773 23.597L206.168 21.328C206.092 21.025 205.865 20.874 205.487 20.874H202.613C202.537 20.874 202.537 20.874 202.462 20.874C202.386 20.874 202.386 20.874 202.31 20.874H196.941L197.394 18.529C197.697 16.412 199.285 14.899 201.176 14.899C201.781 14.899 202.084 14.975 202.764 15.202L203.369 15.429C203.672 15.58 203.974 15.504 204.126 15.126L206.168 10.891C206.394 10.513 206.243 10.21 205.865 10.134L204.882 9.832C203.445 9.378 202.689 9.227 201.327 9.227C195.731 9.227 191.873 12.403 190.89 18.151L190.361 20.95H187.941C187.638 20.95 187.336 21.177 187.336 21.479L186.579 26.017C186.504 26.395 186.731 26.622 187.109 26.622H189.453L186.504 43.714C186.428 44.093 186.655 44.319 187.033 44.319H192.403C192.705 44.319 193.008 44.093 193.008 43.79L195.957 26.622H201.025L198.151 43.563C198.075 43.941 198.302 44.168 198.68 44.168H204.05C204.352 44.168 204.655 43.941 204.655 43.639L205.411 38.798C207.075 29.572 209.571 26.244 214.865 26.017C215.168 26.017 215.47 25.79 215.47 25.487L216.302 20.874Z" fill="#E8299B" /></g><defs><clipPath id="clip0_8108_22066"><rect width="216.529" height="45" fill="white" /></clipPath></defs></svg>