<?xml version="1.0" encoding="UTF-8"?>
<svg id="Calque_1" data-name="Calque 1" xmlns="http://www.w3.org/2000/svg" viewBox="0 0 935.33 1256.48">
  <defs>
    <style>
      .cls-1 {
        fill: #e97822;
      }

      .cls-2 {
        fill: #334049;
      }

      .cls-3 {
        fill: #246293;
      }

      .cls-4 {
        fill: #4e8c32;
      }
    </style>
  </defs>
  <g>
    <path class="cls-2" d="M196.48,1256.48c-15.32,0-29.29-2.81-42.16-8.07-12.6-5.35-23.48-12.87-32.64-22.03-9.25-9.25-16.23-20.13-21.22-32.64-4.99-12.24-7.53-25.66-7.53-39.62v-.54c0-13.96,2.54-27.38,7.53-39.62,4.99-12.24,12.24-23.21,21.49-32.64,9.25-9.52,20.4-16.77,32.91-22.3,12.6-5.62,26.84-8.07,42.16-8.07s29.29,2.81,42.16,8.07c12.6,5.35,23.48,12.87,32.64,22.03,9.25,9.25,16.23,20.13,21.22,32.64,4.99,12.24,7.53,25.66,7.53,39.62v.54c0,13.96-2.54,27.38-7.53,39.62-4.99,12.24-12.24,23.21-21.49,32.64-9.25,9.52-20.4,16.77-32.91,22.3-12.87,5.26-26.84,8.07-42.16,8.07Zm.54-32.37c9.79,0,18.95-1.99,27.11-5.62,8.34-3.63,15.32-8.61,21.22-15.05,5.89-6.44,10.34-13.69,13.69-22.3,3.35-8.34,4.99-17.59,4.99-27.38v-.54c0-9.79-1.63-18.68-4.99-27.38-3.35-8.61-8.07-16.23-13.96-22.3-5.89-6.44-13.15-11.42-21.49-15.05-8.34-3.9-17.32-5.62-27.38-5.62s-18.95,1.99-27.11,5.62c-8.34,3.63-15.32,8.61-21.22,15.05s-10.34,13.69-13.69,22.3c-3.35,8.61-4.99,17.59-4.99,27.38v.54c0,9.79,1.63,18.68,4.99,27.38,3.35,8.61,7.8,16.23,13.96,22.3,5.89,6.44,13.15,11.42,21.49,15.05,8.34,3.9,17.59,5.62,27.38,5.62Z"/>
    <path class="cls-2" d="M416.44,1256.48c-14.51,0-27.93-2.54-40.17-8.07-12.24-5.35-23.21-12.6-32.1-21.76-8.89-9.16-15.96-20.13-21.22-32.64-4.99-12.6-7.53-25.93-7.53-40.17v-.54c0-14.23,2.54-27.65,7.53-39.89s11.97-23.21,21.22-32.64c9.25-9.52,19.86-16.77,32.64-22.03,12.6-5.35,26.2-8.07,41.34-8.07,9.25,0,17.32,.82,24.84,2.27,7.53,1.36,14.23,3.63,20.67,6.44,6.17,2.81,11.97,6.17,17.32,9.79,5.35,3.9,10.34,8.07,15.05,12.6l-22.3,25.93c-8.07-7.25-16.5-13.42-25.39-17.86-8.98-4.44-18.95-6.71-30.46-6.71-9.52,0-18.13,1.99-26.2,5.62-8.07,3.63-15.05,8.61-20.67,15.05-5.89,6.44-10.34,13.69-13.69,22.3-3.35,8.61-4.99,17.59-4.99,27.38v.54c0,9.79,1.63,18.68,4.99,27.38,3.35,8.61,7.8,16.23,13.69,22.58,5.89,6.44,12.6,11.42,20.67,15.05s16.77,5.62,26.2,5.62c6.17,0,11.7-.54,16.77-1.99,4.99-1.09,10.06-2.81,14.51-4.99s8.98-4.71,13.15-8.07c4.17-3.35,8.34-6.71,12.6-10.88l22.3,22.58c-4.99,5.35-10.34,10.06-15.96,14.51-5.62,4.44-11.7,8.07-18.13,11.15s-13.42,5.62-21.22,7.25c-7.89,1.45-16.23,2.27-25.48,2.27Z"/>
    <path class="cls-2" d="M521.7,1054.03h34.91v167.01h104.72v31.82h-139.63v-198.83Z"/>
    <path class="cls-2" d="M761.61,1256.48c-14.51,0-27.93-2.54-40.17-8.07-12.24-5.35-23.21-12.6-32.1-21.76-8.98-9.25-15.96-20.13-21.22-32.64-4.99-12.6-7.53-25.93-7.53-40.17v-.54c0-14.23,2.54-27.65,7.53-39.89s11.97-23.21,21.22-32.64c9.25-9.52,19.86-16.77,32.64-22.03,12.6-5.35,26.2-8.07,41.34-8.07,9.25,0,17.32,.82,24.84,2.27,7.53,1.36,14.23,3.63,20.67,6.44,6.44,2.81,11.97,6.17,17.32,9.79,5.35,3.9,10.34,8.07,15.05,12.6l-22.3,25.93c-7.8-7.25-16.5-13.42-25.39-17.86s-18.95-6.71-30.46-6.71c-9.52,0-18.13,1.99-26.2,5.62-8.07,3.63-15.05,8.61-20.67,15.05-5.89,6.44-10.34,13.69-13.69,22.3-3.35,8.61-4.99,17.59-4.99,27.38v.54c0,9.79,1.63,18.68,4.99,27.38,3.35,8.61,7.8,16.23,13.69,22.58,5.89,6.44,12.6,11.42,20.67,15.05s16.77,5.62,26.2,5.62c6.17,0,11.7-.54,16.77-1.99,4.99-1.09,10.06-2.81,14.51-4.99,4.44-2.27,8.98-4.71,13.15-8.07,4.17-3.35,8.34-6.71,12.6-10.88l22.3,22.58c-4.99,5.35-10.34,10.06-15.96,14.51-5.62,4.44-11.7,8.07-18.13,11.15-6.44,3.08-13.42,5.62-21.22,7.25-7.62,1.45-16.32,2.27-25.48,2.27Z"/>
  </g>
  <g>
    <path class="cls-3" d="M790.67,333.17C755.41,116.1,550.46-30.67,333.17,5.47,115.88,41.61-30.67,246.34,5.48,462.75c26.45,162.2,147.87,284.95,297.95,321.75,.66-11.46,1.98-23.8,4.85-35.26-107.98-37.24-192.83-133.77-213.1-256.52-29.31-177.84,85.95-344.89,258.28-373.32,153.38-25.12,300.15,67.88,350.18,214.43,35.26,13,66.55,31.95,91.68,57.08,.66-18.95-1.32-38.79-4.63-57.74Z"/>
    <path class="cls-4" d="M707.81,261.99c-164.84-44.74-335.19,51.57-380.81,216.41-18.95,67.88-13,137.07,11.46,198.12,8.82-12.12,18.95-23.8,30.63-33.28-7.49-38.79-6.83-79.34,4.85-120.1,37.9-137.07,175.86-219.27,308.75-182.47,132.89,36.8,210.46,177.18,172.33,314.92-25.78,93.66-97.63,160.87-183.13,183.13-3.31,10.14-7.49,20.27-12.12,29.75,122.09-13.66,230.07-99.83,264.67-225.88,44.74-164.84-52.45-335.19-216.63-380.59Z"/>
    <path class="cls-1" d="M617.46,584.18c-101.81-67.21-238.89-38.79-306.1,63.69-67.21,101.81-38.79,238.89,63.69,306.1,101.81,67.21,239.55,38.79,306.1-63.69,67.43-101.81,38.79-238.89-63.69-306.1Zm14.32,294.64c-52.89,80.66-158.89,104.46-236.9,53.55-78.01-50.91-98.51-158.23-45.4-238.89,52.89-80.66,158.89-104.46,236.9-53.55,78.01,51.57,98.29,158.89,45.4,238.89Z"/>
  </g>
</svg>